<?xml version="1.0" ?><svg data-name="Layer 1" id="Layer_1" viewBox="0 0 128 128" xmlns="http://www.w3.org/2000/svg"><defs><style>.cls-1{fill:#fff;}</style></defs><title/><path d="M104,0H24A24.07,24.07,0,0,0,0,24v80a24.07,24.07,0,0,0,24,24h80a24.07,24.07,0,0,0,24-24V24A24.07,24.07,0,0,0,104,0Z"/><path class="cls-1" d="M57,63s6-2.23,6-10S57.86,42,51,42H28V86H51s13,0,13-13C64,73,64,63,57,63ZM38,50H51s3,0,3,4c0,4.52-2,5-4,5H38ZM50,78H38V67l12.59-.07S55,67,55,73C55,78,51.81,77.95,50,78Z"/><path class="cls-1" d="M84.77,52.88c-16.69,0-16.68,16.68-16.68,16.68S67.17,86,85,86c0,0,15,1.39,15-11H92s.24,4.28-7,4.28c0,0-8,.79-8-7.28h23S102.34,52.88,84.77,52.88ZM92,66H77s1.24-6.76,7.94-6.76S92,66,92,66Z"/><rect class="cls-1" height="6" width="19" x="75" y="44"/></svg>