<?xml version="1.0" encoding="utf-8"?>
<svg version="1.1" id="Layer_1" xmlns="http://www.w3.org/2000/svg" xmlns:xlink="http://www.w3.org/1999/xlink" x="0px" y="0px"
	 viewBox="0 0 288 288" style="enable-background:new 0 0 288 288;" xml:space="preserve">
<style type="text/css">
	#Layer_1{ width:22px; height:auto;}
	.st0{fill-rule:evenodd;clip-rule:evenodd;fill:#EE7700;}
</style>
<path class="st0" d="M82,63.8c18.2-0.2,30.3,2.1,41.9,7.3c7,3.1,15,10.3,8.1,19.4c-1.6,2.1-7.8,6.1-12.1,4c-12-5.7-24.1-11-41.9-5.7
	c-18,5.4-31.9,18.2-38.7,34.7c-12.1,29.5,6.7,58.8,24.2,69.5c34.5,21.1,75.3-1.7,83.8-29.9c5.1-17.1-7.7-41.7,15.3-42
	c1.8,1.7,5,2.7,6.4,4.8c9.5,14.1-0.3,42.2-5.6,52.5c-12.5,24.2-33.1,45.2-69.3,45.2c-5.9-0.3-11.8-0.5-17.7-0.8
	c-7.8-2.2-16.8-4.9-23.4-8.9c-23.5-14.4-51.4-52.8-36.3-94.5c3.4-9.4,8.9-18.3,14.5-25.9c7.6-10.3,20.5-19,33-24.2
	C70.2,67.9,76.1,65.5,82,63.8z M185.9,65.5c45-0.6,69.9,16.5,83,47.7c5.4,12.9,9.6,36.1,4,53.3c-3.6,11.1-9.7,21.4-16.1,29.9
	c-12.9,17.2-48,34.7-79.8,25c-7.5-2.3-18.4-3.4-20.9-10.5c-3.9-4-0.5-7.5,0.8-12.1c1.9-1.3,3-2.7,4.8-4c16,1.9,27.6,11.3,46.7,6.5
	c29.1-7.3,53.7-38.2,41.1-76c-1.7-5-5-11.1-8.1-15.4c-21.7-30.4-73-28.6-92.6,2.4c-4.6,7.3-6.7,16-8.9,25.9
	c-1.8,8.2,1.1,15.5-0.8,23.4c-4.4,2.9-5.7,4.9-13.7,4.8c-2.5-2.4-5.1-2.7-6.4-6.5c-6-7.8-1.8-30.3,0.8-38
	c8.4-24.7,22.3-40,44.3-50.9C170.4,68,173,69.5,185.9,65.5z"/>
</svg>
