<?xml version="1.0" encoding="UTF-8" standalone="no"?> <svg width="24" height="24" viewBox="0 0 24 24" fill="none" xmlns="http://www.w3.org/2000/svg">
<path fill-rule="evenodd" clip-rule="evenodd" d="M1 4C1 2.34315 2.34315 1 4 1H20C21.6569 1 23 2.34315 23 4V20C23 21.6569 21.6569 23 20 23H14C13.4477 23 13 22.5523 13 22C13 21.4477 13.4477 21 14 21H20C20.5523 21 21 20.5523 21 20V4C21 3.44772 20.5523 3 20 3H4C3.44772 3 3 3.44772 3 4V10C3 10.5523 2.55228 11 2 11C1.44772 11 1 10.5523 1 10V4ZM13 7C12.4477 7 12 6.55228 12 6C12 5.44772 12.4477 5 13 5H18C18.5523 5 19 5.44772 19 6V11C19 11.5523 18.5523 12 18 12C17.4477 12 17 11.5523 17 11V8.41421L12.7071 12.7071C12.3166 13.0976 11.6834 13.0976 11.2929 12.7071C10.9024 12.3166 10.9024 11.6834 11.2929 11.2929L15.5858 7H13ZM1 16C1 14.3431 2.34315 13 4 13H8C9.65685 13 11 14.3431 11 16V20C11 21.6569 9.65685 23 8 23H4C2.34315 23 1 21.6569 1 20V16ZM4 15C3.44772 15 3 15.4477 3 16V20C3 20.5523 3.44772 21 4 21H8C8.55228 21 9 20.5523 9 20V16C9 15.4477 8.55228 15 8 15H4Z" fill="#303030"/>
</svg>
