<svg id="Capa_1" xmlns="http://www.w3.org/2000/svg" xmlns:xlink="http://www.w3.org/1999/xlink" viewBox="0 0 512 512" style="background:0 0"><g><g><path style="fill:#fff" d="M437.02 74.98C388.667 26.629 324.38.0 256 0S123.333 26.629 74.98 74.98C26.629 123.333.0 187.62.0 256s26.629 132.667 74.98 181.02C123.333 485.371 187.62 512 256 512s132.667-26.629 181.02-74.98C485.371 388.667 512 324.38 512 256S485.371 123.333 437.02 74.98zM256 101c24.813.0 45 20.187 45 45s-20.187 45-45 45-45-20.187-45-45S231.187 101 256 101zm64 3e2H190v-30h21V251h-20v-30h110v150h19v30z"/></g></g><g/><g/><g/><g/><g/><g/><g/><g/><g/><g/><g/><g/><g/><g/><g/></svg>