<?xml version="1.0" encoding="UTF-8"?>
<svg width="26px" height="26px" viewBox="0 0 26 26" version="1.1" xmlns="http://www.w3.org/2000/svg" xmlns:xlink="http://www.w3.org/1999/xlink">
    <title>seal-white</title>
    <g id="L2-explorations" stroke="none" stroke-width="1" fill="none" fill-rule="evenodd">
        <g id="seal-white" transform="translate(2.000000, 2.000000)">
            <path d="M10.9988461,-0.774730682 L13.3955754,2.06128515 L16.8891924,0.802262531 L17.5413055,4.45773804 L21.1979192,5.11098928 L19.9377877,8.60338634 L22.7749121,11.0000907 L19.9377582,13.3956819 L21.1977961,16.8900959 L17.5413055,17.5433252 L16.8892034,21.1987392 L13.3946187,19.9397781 L10.9989368,22.7759013 L8.60325487,19.9397781 L5.10867021,21.1987392 L4.45654483,17.5431952 L0.801322295,16.8888511 L2.06021738,13.395588 L-0.774639986,11.0000141 L2.06120347,8.60343045 L0.801017596,5.10974441 L4.45763124,4.45763124 L5.10974441,0.801017596 L8.60334875,2.061174 L10.9988461,-0.774730682 Z" id="Fill-2" stroke-opacity="0.3" stroke="#000000" fill="#FFFFFF"></path>
            <path d="M9.75,17 L12.25,17 L12.25,9.8 L9.75,9.8 L9.75,17 Z M9.75,7.4 L12.25,7.4 L12.25,5 L9.75,5 L9.75,7.4 Z" id="Fill-4" fill="#2C2C2C"></path>
        </g>
    </g>
</svg>