<?xml version="1.0" encoding="utf-8"?>
<svg version="1.1" id="Layer_1" xmlns="http://www.w3.org/2000/svg" xmlns:xlink="http://www.w3.org/1999/xlink" x="0px" y="0px"
	 viewBox="0 0 20 20" style="enable-background:new 0 0 20 20;" xml:space="preserve">
<style type="text/css">
	.st0{fill:none;}
	.st1{fill:#2271B1;}
</style>
<rect class="st0" width="20" height="20"/>
<g>
	<path class="st1" d="M10.5,8.9V3.4c0-0.4-0.4-0.8-0.8-0.8H8.4L7.3,1H4.2L3.1,2.6H1.8C1.4,2.6,1,2.9,1,3.4v5.5
		c0,0.4,0.4,0.8,0.8,0.8h7.9C10.1,9.7,10.5,9.4,10.5,8.9z M5.8,3.8c1.1,0,2,0.9,2,2s-0.9,2-2,2s-2-0.9-2-2S4.7,3.8,5.8,3.8z
		 M15.3,10.3c-1.1,0-3,1.1-3,0S14.2,10.4,15.3,10.3c0.1,0-2.7,0.1-2.6,0.1l1-3h-2.4V5.1h4 M8.1,11.3v-0.8h1.6v2.8c0,1.1-0.9,2-2,2
		s-2-0.9-2-2s0.9-2,2-2C7.9,11.3,8,11.3,8.1,11.3z"/>
</g>
<g>
	<path class="st1" d="M12.4,13.2c-0.1,0.1-0.2,0.2-0.2,0V13c0-0.3-0.3-0.6-0.6-0.6S11,12.7,11,13v2c0,0.3,0.3,0.6,0.6,0.6h2
		c0.3,0,0.6-0.3,0.6-0.6c0-0.3-0.3-0.6-0.6-0.6c0,0-0.1,0-0.2,0c-0.1,0-0.2-0.1-0.1-0.3c0.5-0.7,1.3-1.1,2.1-1.1
		c1.4,0,2.5,1.1,2.5,2.5c0,1.4-1.1,2.5-2.5,2.5c-0.4,0-0.7,0.3-0.7,0.7s0.3,0.7,0.7,0.7c2.1,0,3.9-1.7,3.9-3.9
		c0-2.1-1.7-3.9-3.9-3.9C14.2,11.7,13.1,12.2,12.4,13.2z"/>
</g>
</svg>
