<?xml version="1.0" encoding="utf-8"?>
<svg version="1.1" id="Layer_1" xmlns="http://www.w3.org/2000/svg" xmlns:xlink="http://www.w3.org/1999/xlink" x="0px" y="0px"
	 viewBox="0 0 512 512" style="enable-background:new 0 0 512 512;" xml:space="preserve">
<style type="text/css">
	.st0{fill:#006799;}
</style>
<path class="st0" d="M260,512H99.5C44.5,512,0,467.5,0,412.5v-313C0,44.5,44.5,0,99.5,0h313c55,0,99.5,44.5,99.5,99.5v151.6
	c-17.6,20.1-40,7.8-40-9.6v-142c0-32.9-26.6-59.5-59.5-59.5h-313C66.6,40,40,66.6,40,99.5v313c0,32.9,26.6,59.5,59.5,59.5h170.1
	C289.7,489.6,277.5,512,260,512z M412,127c0-11-9-20-20-20H209c-11,0-20,9-20,20s9,20,20,20h183C403,147,412,138,412,127z M412,207
	c0-11-9-20-20-20H120c-11,0-20,9-20,20s9,20,20,20h272C403,227,412,218,412,207z M212,287c0-11-9-20-20-20h-72c-11,0-20,9-20,20
	s9,20,20,20h72C203,307,212,298,212,287z M100,125c0,13.8,11.2,25,25,25s25-11.2,25-25s-11.2-25-25-25S100,111.2,100,125z"/>
<g>
	<path class="st0" d="M301.6,323.2c-3.4,4.5-5.8,5.3-5.8,1.5v-6.9c0-9.9-8-17.9-17.9-17.9s-17.9,8-17.9,17.9v61.3
		c0,9.9,8,17.9,17.9,17.9h61.3c9.9,0,17.9-8,17.9-17.9c0-9.9-8-17.9-17.9-17.9c0,0-3,0-6.6,0c-3.7,0-4.7-4.2-1.6-8.9
		c14.1-21.4,38.2-34.7,64.2-34.7c42.4,0,76.8,34.5,76.8,76.8c0,42.4-34.5,76.8-76.8,76.8c-11.3,0-20.4,9.2-20.4,20.4
		s9.2,20.4,20.4,20.4c64.9,0,117.7-52.8,117.7-117.7c0-64.9-52.8-117.7-117.7-117.7C358.2,276.7,323.6,294.4,301.6,323.2z"/>
</g>
</svg>
