<?xml version="1.0" ?><!DOCTYPE svg  PUBLIC '-//W3C//DTD SVG 1.1//EN'  'http://www.w3.org/Graphics/SVG/1.1/DTD/svg11.dtd'><svg enable-background="new 0 0 500 500" height="500px" id="Layer_1" version="1.1" viewBox="0 0 500 500" width="500px" xml:space="preserve" xmlns="http://www.w3.org/2000/svg" xmlns:xlink="http://www.w3.org/1999/xlink"><path clip-rule="evenodd" d="M241.915,283.078L87.914,437.067  c-3.27,3.275-5.267,7.818-5.267,12.815c0,9.988,8.089,18.168,18.172,18.168c2.635,0,5.083-0.55,7.355-1.544  c0,0,256.578-111.206,259.485-112.574c5.991-2.713,10.63-7.985,12.448-14.531l41.526-149.635l8.356,8.268  c8.715,8.722,22.803,8.722,31.514,0c8.731-8.721,8.731-22.811,0-31.524L333.492,38.489c-8.712-8.721-22.804-8.721-31.515,0  c-8.731,8.721-8.731,22.811,0,31.524l8.26,8.268l-149.911,41.701c-6.543,1.917-11.811,6.637-14.539,12.812L33.4,392.104  c-0.906,2.174-1.452,4.543-1.452,7.08c0,10.087,8.177,18.172,18.172,18.172c5.181,0,9.812-2.094,13.083-5.536l153.724-153.726  c-2.088-5.369-3.269-11.093-3.269-17.178c0-25.074,20.354-45.428,45.429-45.428c25.072,0,45.426,20.354,45.426,45.428  s-20.354,45.429-45.426,45.429C253.001,286.345,247.277,285.164,241.915,283.078z" fill="#4b4b4b" fill-rule="evenodd"/></svg>